<?xml version="1.0" standalone="no"?>
<!DOCTYPE svg PUBLIC "-//W3C//DTD SVG 20010904//EN"
 "http://www.w3.org/TR/2001/REC-SVG-20010904/DTD/svg10.dtd">
<svg version="1.0" xmlns="http://www.w3.org/2000/svg"
 width="249.000000pt" height="249.000000pt" viewBox="0 0 249.000000 249.000000"
 preserveAspectRatio="xMidYMid meet">
<metadata>
Created by potrace 1.11, written by Peter Selinger 2001-2013
</metadata>
<g transform="translate(0.000000,249.000000) scale(0.100000,-0.100000)"
fill="#000000" stroke="none">
<path d="M546 1910 c-38 -5 -73 -13 -79 -19 -7 -7 -5 -32 6 -78 9 -37 33 -142
53 -233 104 -474 149 -668 156 -676 3 -2 25 4 49 14 76 33 172 52 265 53 69 0
83 2 64 10 -56 22 -238 7 -319 -27 -19 -8 -35 -13 -36 -12 -2 3 -13 49 -94
418 -33 146 -72 318 -87 383 -23 99 -26 120 -14 127 17 10 139 23 230 25 82 1
185 -18 247 -44 30 -13 41 -15 29 -6 -78 60 -280 87 -470 65z"/>
<path d="M2375 1890 l-16 -30 -33 25 c-18 14 -38 25 -43 25 -9 0 -43 -58 -43
-74 0 -3 19 -18 41 -33 40 -26 42 -26 55 -9 7 11 15 24 17 30 2 6 20 0 44 -16
45 -29 53 -27 72 24 8 21 6 29 -12 46 -12 11 -32 25 -44 31 -20 10 -24 8 -38
-19z"/>
<path d="M1104 1737 c56 -100 78 -179 80 -282 0 -82 -3 -98 -37 -181 -48 -118
-60 -185 -55 -309 3 -83 8 -107 28 -145 44 -78 124 -112 178 -74 27 19 52 67
82 159 27 83 63 151 90 165 30 16 65 12 86 -11 46 -51 114 -63 157 -28 44 33
75 185 48 228 -11 18 -25 -7 -35 -62 -6 -31 -14 -41 -39 -52 -36 -15 -46 -12
-105 28 -116 78 -190 12 -257 -228 -26 -93 -49 -125 -92 -125 -26 0 -42 8 -63
30 -65 70 -66 222 -1 393 51 133 58 184 37 274 -18 81 -45 146 -94 226 -47 76
-52 73 -8 -6z"/>
<path d="M308 1737 c-49 -18 -88 -37 -88 -45 0 -11 155 -384 307 -742 25 -58
54 -129 65 -158 l20 -52 49 44 c54 49 132 83 219 95 l55 9 -46 1 c-62 1 -166
-31 -217 -69 -23 -16 -44 -30 -46 -30 -3 0 -12 15 -19 33 -25 55 -337 842
-337 848 0 4 35 19 78 34 92 33 84 28 76 49 -8 21 -14 20 -116 -17z"/>
<path d="M2185 1720 l-16 -30 -33 25 c-18 14 -38 25 -44 25 -9 0 -42 -59 -42
-75 0 -1 19 -15 42 -30 39 -26 42 -26 54 -10 7 10 15 23 17 29 2 6 20 0 45
-16 l41 -27 20 33 c12 19 19 40 16 47 -5 13 -68 59 -80 59 -2 0 -12 -14 -20
-30z"/>
<path d="M813 1720 c-85 -9 -68 -15 41 -15 91 -1 109 -4 159 -29 31 -15 57
-32 57 -37 0 -5 6 -9 12 -9 17 0 -31 44 -70 64 -40 21 -132 33 -199 26z"/>
<path d="M2320 1646 c-15 -40 -18 -135 -4 -129 19 7 54 -16 63 -40 16 -42 -32
-115 -84 -131 -19 -6 -20 -1 -21 74 0 90 -21 133 -65 137 -79 8 -144 -182 -94
-276 13 -25 12 -27 -18 -42 -31 -16 -32 -16 -58 12 -30 32 -71 38 -101 15 -39
-29 -55 -125 -29 -173 13 -26 58 -37 93 -24 48 18 51 -17 9 -104 -79 -163
-247 -290 -359 -271 -50 8 -99 45 -122 91 -27 55 -43 139 -37 192 2 24 1 46
-4 49 -16 10 -30 -49 -31 -127 -1 -126 40 -232 108 -278 94 -65 196 -48 307
50 109 96 198 254 213 379 4 33 13 50 32 65 15 11 42 37 61 57 27 31 41 38 70
38 103 0 175 116 175 280 0 92 -15 135 -56 164 -30 21 -37 20 -48 -8z m-90
-236 c14 -26 3 -68 -20 -75 -29 -9 -60 16 -60 47 0 45 60 66 80 28z"/>
<path d="M118 1504 c-49 -26 -88 -50 -88 -56 0 -5 76 -134 168 -286 162 -266
240 -394 265 -437 7 -11 24 -38 38 -60 14 -22 28 -48 32 -57 9 -26 21 -22 64
17 73 67 177 111 291 125 65 7 66 7 17 9 -94 2 -218 -40 -306 -105 l-45 -33
-237 407 -237 407 76 38 c56 28 74 42 70 53 -3 9 -6 18 -6 20 0 9 -19 1 -102
-42z"/>
<path d="M1348 1487 c-34 -52 -34 -52 40 -103 2 -1 -5 -18 -14 -38 -10 -19
-16 -37 -13 -38 2 -2 19 -14 38 -27 39 -28 59 -21 74 24 8 24 6 31 -12 46 -12
10 -26 19 -33 21 -8 3 -7 14 2 40 15 41 10 52 -38 80 -29 17 -30 17 -44 -5z"/>
<path d="M830 1471 c-15 -4 13 -7 66 -8 106 -1 179 -21 224 -63 16 -15 30 -24
30 -20 0 19 -74 70 -122 85 -53 15 -153 19 -198 6z"/>
<path d="M905 1230 c-31 -5 -19 -7 55 -12 52 -3 106 -9 119 -14 16 -5 22 -4
18 4 -12 18 -126 32 -192 22z"/>
<path d="M1638 967 c-34 -52 -34 -52 40 -103 2 -1 -5 -19 -15 -39 -12 -26 -14
-39 -7 -42 6 -2 26 -15 45 -29 l34 -25 20 41 20 42 -33 26 c-30 26 -32 29 -20
59 13 36 7 48 -40 75 -29 17 -30 17 -44 -5z"/>
<path d="M940 886 c0 -2 18 -6 39 -8 22 -2 37 0 35 4 -5 8 -74 11 -74 4z"/>
<path d="M1038 873 c7 -3 16 -2 19 1 4 3 -2 6 -13 5 -11 0 -14 -3 -6 -6z"/>
</g>
</svg>
