<svg xmlns="http://www.w3.org/2000/svg" width="64" height="64" viewBox="0 0 64 64">
  <g id="ic_apple" transform="translate(-236 -887)">
    <g id="ic_apple-2" data-name="ic_apple" transform="translate(0 167)">
      <g id="Group_57222" data-name="Group 57222" transform="translate(3 69)">
        <circle id="Ellipse_2447" data-name="Ellipse 2447" cx="32" cy="32" r="32" transform="translate(233 651)"/>
      </g>
      <path id="apple" d="M13.044,2.524A6.207,6.207,0,0,1,17.6,0a6.192,6.192,0,0,1-1.5,4.636,4.9,4.9,0,0,1-4.319,2.031A5.385,5.385,0,0,1,13.044,2.524Zm-1.021,5.8c.98,0,2.8-1.347,5.168-1.347a6.473,6.473,0,0,1,5.68,2.9,6.3,6.3,0,0,0-3.136,5.494,6.458,6.458,0,0,0,3.907,5.9s-2.731,7.687-6.42,7.687c-1.694,0-3.012-1.142-4.8-1.142C10.606,27.816,8.8,29,7.624,29,4.256,29,0,21.708,0,15.847,0,10.08,3.6,7.054,6.981,7.054c2.2,0,3.9,1.267,5.043,1.267Z" transform="translate(256.179 737.5)" fill="#fff"/>
    </g>
  </g>
</svg>
