<svg xmlns="http://www.w3.org/2000/svg" width="44" height="44" viewBox="0 0 44 44">
  <g id="Group_57228" data-name="Group 57228" transform="translate(-665 -809)">
    <circle id="Ellipse_2405" data-name="Ellipse 2405" cx="22" cy="22" r="22" transform="translate(665 809)" fill="#fff"/>
    <g id="link_2_" data-name="link (2)" transform="translate(676.998 821)">
      <path id="Path_106752" data-name="Path 106752" d="M8.626,164.23l-1.839,1.839a2.361,2.361,0,1,1-3.34-3.34l3.692-3.692a2.359,2.359,0,0,1,3.34,0,1.013,1.013,0,0,0,1.447.015l1.157-1.157a5.123,5.123,0,0,0-7.9-.8L1.5,160.769a5.125,5.125,0,1,0,7.247,7.247l3.309-3.309a6.487,6.487,0,0,1-3.431-.477Zm0,0" transform="translate(0 -149.515)" fill="#3c5d4b"/>
      <path id="Path_106753" data-name="Path 106753" d="M188.716,1.5a5.13,5.13,0,0,0-7.247,0L178.16,4.806a6.484,6.484,0,0,1,3.431.477l1.839-1.839a2.361,2.361,0,0,1,3.34,3.34l-3.692,3.692a2.351,2.351,0,0,1-3.107.177,2.316,2.316,0,0,1-.217-.192,1.035,1.035,0,0,0-1.462,0l-1.157,1.157a5.123,5.123,0,0,0,7.9.8l3.678-3.678a5.131,5.131,0,0,0,0-7.247Zm0,0" transform="translate(-170.212 0)" fill="#3c5d4b"/>
    </g>
  </g>
</svg>
