<svg id="Group_57176" data-name="Group 57176" xmlns="http://www.w3.org/2000/svg" width="64" height="64" viewBox="0 0 64 64">
  <g id="Ellipse_2445" data-name="Ellipse 2445" fill="#fff" stroke="#e1e1e1" stroke-width="1">
    <circle cx="32" cy="32" r="32" stroke="none"/>
    <circle cx="32" cy="32" r="31.5" fill="none"/>
  </g>
  <g id="google-icon_3_" data-name="google-icon (3)" transform="translate(20 20)">
    <path id="Path_108094" data-name="Path 108094" d="M142.305,109.214a10.084,10.084,0,0,0-.259-2.453h-11.5v4.453H137.3a5.848,5.848,0,0,1-2.5,3.893l-.023.149,3.635,2.76.252.025a11.616,11.616,0,0,0,3.646-8.827" transform="translate(-118.305 -96.948)" fill="#4285f4"/>
    <path id="Path_108095" data-name="Path 108095" d="M24.864,166a11.811,11.811,0,0,0,8.109-2.907l-3.864-2.933A7.572,7.572,0,0,1,17.9,156.37l-.144.012-3.78,2.867-.049.135A12.263,12.263,0,0,0,24.864,166" transform="translate(-12.619 -141.997)" fill="#34a853"/>
    <path id="Path_108096" data-name="Path 108096" d="M5.279,79.13a7.254,7.254,0,0,1-.408-2.373,7.622,7.622,0,0,1,.395-2.373l-.007-.159L1.431,71.312l-.125.058a11.761,11.761,0,0,0,0,10.773L5.279,79.13" transform="translate(0 -64.757)" fill="#fbbc05"/>
    <path id="Path_108097" data-name="Path 108097" d="M24.864,4.64A6.86,6.86,0,0,1,29.6,6.427L33.054,3.12A11.9,11.9,0,0,0,24.864,0,12.263,12.263,0,0,0,13.925,6.613l3.959,3.013a7.388,7.388,0,0,1,6.98-4.987" transform="translate(-12.619 0)" fill="#eb4335"/>
  </g>
</svg>
