<svg xmlns="http://www.w3.org/2000/svg" width="62" height="62" viewBox="0 0 62 62">
  <g id="Group_57175" data-name="Group 57175" transform="translate(-567 -2676)">
    <g id="Group_10269" data-name="Group 10269" transform="translate(-9 1398)">
      <circle id="Ellipse_6" data-name="Ellipse 6" cx="31" cy="31" r="31" transform="translate(576 1278)" fill="#22bfad"/>
    </g>
    <g id="shield" transform="translate(534.226 2692)">
      <path id="Path_3258" data-name="Path 3258" d="M235.265,190.142a1.3,1.3,0,1,0-1.3-1.3A1.3,1.3,0,0,0,235.265,190.142Z" transform="translate(-171.623 -176.052)" fill="#fff"/>
      <path id="Path_3259" data-name="Path 3259" d="M75.533,4.165,63.949.053a.919.919,0,0,0-.615,0L51.75,4.165a.919.919,0,0,0-.612.866V17.167a14.252,14.252,0,0,0,12.385,14.1.918.918,0,0,0,.237,0,14.252,14.252,0,0,0,12.385-14.1V5.031a.919.919,0,0,0-.612-.866ZM69.341,20.7a.919.919,0,1,1-1.839,0V20.39a3.864,3.864,0,0,0-7.723,0V20.7a.919.919,0,1,1-1.839,0V20.39a5.577,5.577,0,0,1,3.681-5.2,3.136,3.136,0,1,1,4.038,0,5.577,5.577,0,0,1,3.681,5.2V20.7Z" fill="#fff"/>
    </g>
  </g>
</svg>
