<svg xmlns="http://www.w3.org/2000/svg" width="32.985" height="33.369" viewBox="0 0 32.985 33.369"><g transform="translate(0 0)"><g transform="translate(17.411 18.994)"><path d="M18.787,26.376a.594.594,0,0,1-.358-.12C18.126,26.031,11,20.662,11,16.35a4.352,4.352,0,0,1,7.787-2.669,4.352,4.352,0,0,1,7.787,2.669c0,4.313-7.126,9.681-7.429,9.908a.6.6,0,0,1-.358.119ZM22.225,13.2Z" transform="translate(-11 -12)" fill="#ff9000"/></g><g transform="translate(0 0.001)"><path d="M15.037,31.656H7.914A3.169,3.169,0,0,1,4.748,28.49V17.411H1.583A1.565,1.565,0,0,1,0,15.828a1.6,1.6,0,0,1,.516-1.174L16.08.212a.791.791,0,0,1,1.076,0l5,4.638V2.374a.792.792,0,0,1,.791-.791H27.7a.792.792,0,0,1,.791.791v8.345l4.242,3.943a.791.791,0,1,1-1.078,1.159l-4.5-4.179a.787.787,0,0,1-.252-.578v-7.9H23.742v3.5a.791.791,0,0,1-1.33.579L16.62,1.871,1.583,15.822l3.957.006a.792.792,0,0,1,.791.791V28.49a1.584,1.584,0,0,0,1.583,1.583h7.123a.791.791,0,1,1,0,1.583Z" transform="translate(0 -0.001)" fill="#fff"/></g></g></svg>