<svg xmlns="http://www.w3.org/2000/svg" width="64" height="64" viewBox="0 0 64 64">
  <g id="Group_57179" data-name="Group 57179" transform="translate(-188)">
    <g id="Group_57178" data-name="Group 57178">
      <circle id="Ellipse_2447" data-name="Ellipse 2447" cx="32" cy="32" r="32" transform="translate(188)" fill="#2489be"/>
      <g id="XMLID_801_" transform="translate(208 20)">
        <path id="XMLID_802_" d="M10.132,99.73H5.314a.388.388,0,0,0-.387.388V115.63a.387.387,0,0,0,.387.388h4.818a.387.387,0,0,0,.387-.388V100.118A.388.388,0,0,0,10.132,99.73Z" transform="translate(-4.546 -92.018)" fill="#fff"/>
        <path id="XMLID_803_" d="M3.179.341A3.183,3.183,0,1,0,6.356,3.524,3.185,3.185,0,0,0,3.179.341Z" transform="translate(0 -0.341)" fill="#fff"/>
        <path id="XMLID_804_" d="M115.8,94.761a5.653,5.653,0,0,0-4.233,1.781V95.535a.388.388,0,0,0-.387-.388h-4.614a.388.388,0,0,0-.387.388v15.512a.387.387,0,0,0,.387.388h4.808a.387.387,0,0,0,.387-.388v-7.675c0-2.586.7-3.594,2.5-3.594,1.959,0,2.115,1.615,2.115,3.727v7.542a.387.387,0,0,0,.387.388h4.809a.387.387,0,0,0,.387-.388v-8.509C121.956,98.692,121.224,94.761,115.8,94.761Z" transform="translate(-97.956 -87.435)" fill="#fff"/>
      </g>
    </g>
  </g>
</svg>
