<svg xmlns="http://www.w3.org/2000/svg" width="45.972" height="36.455" viewBox="0 0 45.972 36.455"><g transform="translate(0 -52.995)"><g transform="translate(9.609 60.114)"><path d="M107.021,132.277h26.753v14.374H107.021Z" transform="translate(-107.021 -132.277)" fill="#ff9000"/></g><g transform="translate(0 52.995)"><path d="M45.074,80.814H43.882v-24.6A3.222,3.222,0,0,0,40.664,53H5.308A3.222,3.222,0,0,0,2.09,56.213v24.6H.9a.9.9,0,0,0-.9.9v2.281A5.464,5.464,0,0,0,5.457,89.45H40.515a5.464,5.464,0,0,0,5.458-5.458V81.712a.9.9,0,0,0-.9-.9ZM3.886,56.213a1.424,1.424,0,0,1,1.422-1.422H40.664a1.424,1.424,0,0,1,1.422,1.422v24.6H33.1a.9.9,0,0,0-.9.9v1.625H13.774V81.712a.9.9,0,0,0-.9-.9H3.886Zm40.29,27.78a3.666,3.666,0,0,1-3.662,3.662H5.457A3.666,3.666,0,0,1,1.8,83.993V82.61H11.978v1.625a.9.9,0,0,0,.9.9H33.1a.9.9,0,0,0,.9-.9V82.61H44.177Z" transform="translate(0 -52.995)" fill="#fff"/><path d="M154.118,176.249a5.268,5.268,0,0,0,.785.019c.328,0,.806,0,1.507-.006a.9.9,0,0,0-.01-1.8l-1.232,0v-5.2a.9.9,0,0,0-1.8,0v6.091a.9.9,0,0,0,.746.885Z" transform="translate(-139.601 -158.016)" fill="#fff"/><path d="M209.808,176.267a.9.9,0,0,0,.9-.9v-6.1a.9.9,0,0,0-1.8,0v6.1A.9.9,0,0,0,209.808,176.267Z" transform="translate(-190.152 -158.015)" fill="#fff"/><path d="M311.181,176.831h2.545a.9.9,0,0,0,0-1.8h-1.647v-1.224h1.459a.9.9,0,0,0,0-1.8h-1.459v-1.224h1.647a.9.9,0,0,0,0-1.8h-2.545a.9.9,0,0,0-.9.9v6.04A.9.9,0,0,0,311.181,176.831Z" transform="translate(-282.423 -158.579)" fill="#fff"/><path d="M237.593,175.574a1.036,1.036,0,0,0,.976.689h.007a1.038,1.038,0,0,0,.975-.708l1.99-5.991a.9.9,0,0,0-1.7-.566l-1.284,3.866-1.35-3.888a.9.9,0,1,0-1.7.589Z" transform="translate(-214.315 -158.012)" fill="#fff"/></g></g></svg>