<svg xmlns="http://www.w3.org/2000/svg" width="96.151" height="58.657" viewBox="0 0 96.151 58.657">
  <g id="Group_55997" data-name="Group 55997" transform="translate(-969.349 -1175.167) rotate(-8)">
    <g id="Group_55996" data-name="Group 55996" transform="translate(794.609 1311.119)">
      <path id="Path_104390" data-name="Path 104390" d="M107.021,132.277h90.56v46.506h-90.56Z" transform="translate(-107.021 -132.277)" fill="#ffc100"/>
    </g>
    <path id="Path_104408" data-name="Path 104408" d="M155.785,193.85a17.049,17.049,0,0,0,2.54.06c1.062,0,2.607-.006,4.875-.018a2.905,2.905,0,1,0-.033-5.81c-1.359.008-2.791.013-3.985.015V171.281a2.905,2.905,0,0,0-5.81,0v19.706A2.906,2.906,0,0,0,155.785,193.85Z" transform="translate(654.703 1153.229)" fill="#fff"/>
    <path id="Path_104409" data-name="Path 104409" d="M211.815,193.908A2.905,2.905,0,0,0,214.72,191V171.28a2.905,2.905,0,0,0-5.81,0V191A2.905,2.905,0,0,0,211.815,193.908Z" transform="translate(616.289 1153.37)" fill="#fff"/>
    <path id="Path_104410" data-name="Path 104410" d="M313.188,194.347h8.234a2.905,2.905,0,0,0,0-5.81h-5.329v-3.961h4.722a2.905,2.905,0,0,0,0-5.81h-4.722v-3.961h5.329a2.905,2.905,0,0,0,0-5.81h-8.234a2.905,2.905,0,0,0-2.905,2.905v19.542A2.905,2.905,0,0,0,313.188,194.347Z" transform="translate(548.605 1151.505)" fill="#fff"/>
    <path id="Path_104411" data-name="Path 104411" d="M242.368,191.676a3.352,3.352,0,0,0,3.157,2.229h.023a3.359,3.359,0,0,0,3.156-2.291l6.439-19.384a2.905,2.905,0,0,0-5.514-1.832l-4.155,12.508-4.367-12.581a2.905,2.905,0,1,0-5.489,1.905Z" transform="translate(599.575 1152.66)" fill="#fff"/>
  </g>
</svg>
