<svg xmlns="http://www.w3.org/2000/svg" xmlns:xlink="http://www.w3.org/1999/xlink" width="249" height="82.407" viewBox="0 0 249 82.407">
  <defs>
    <clipPath id="clip-path">
      <path id="Path_75900" data-name="Path 75900" d="M994.24,318.264l.026-.006,5.71-1.359c.84-3.32,1.87-6.578,3.93-8.637a6.519,6.519,0,0,1,3.929-2.164,2.681,2.681,0,0,1,2.755,1.664,8.988,8.988,0,0,0-2.9-6.926c-.209.018-.419.04-.629.072a13.213,13.213,0,0,0-6.872,3.636c-3.383,3.383-4.518,8.048-5.653,12.5C994.429,317.445,994.324,317.844,994.24,318.264Z" transform="translate(-994.24 -300.835)" fill="aqua"/>
    </clipPath>
    <linearGradient id="linear-gradient" x1="0.736" y1="0.803" x2="0.228" y2="0.347" gradientUnits="objectBoundingBox">
      <stop offset="0" stop-color="#fff" stop-opacity="0"/>
      <stop offset="1" stop-color="#fff" stop-opacity="0.769"/>
    </linearGradient>
    <clipPath id="clip-path-2">
      <path id="Path_75901" data-name="Path 75901" d="M1021.74,390.476l.023.015,5,3.077c2.942-1.753,5.973-3.329,8.885-3.329a6.52,6.52,0,0,1,4.31,1.248,2.681,2.681,0,0,1,.771,3.124,8.989,8.989,0,0,0,2.844-6.95c-.161-.136-.325-.269-.5-.395a13.215,13.215,0,0,0-7.43-2.288c-4.785,0-8.885,2.5-12.839,4.844C1022.453,390.031,1022.1,390.238,1021.74,390.476Z" transform="translate(-1021.74 -384.979)" fill="aqua"/>
    </clipPath>
    <clipPath id="clip-path-3">
      <path id="Path_75902" data-name="Path 75902" d="M1013.076,452.989l.006.027,1.359,5.71c3.32.841,6.578,1.87,8.637,3.93a6.52,6.52,0,0,1,2.164,3.93,2.681,2.681,0,0,1-1.664,2.755,8.988,8.988,0,0,0,6.926-2.9c-.018-.21-.04-.42-.071-.629a13.216,13.216,0,0,0-3.636-6.872c-3.383-3.383-8.049-4.518-12.5-5.653C1013.9,453.178,1013.5,453.073,1013.076,452.989Z" transform="translate(-1013.076 -452.989)" fill="aqua"/>
    </clipPath>
    <clipPath id="clip-path-4">
      <path id="Path_75905" data-name="Path 75905" d="M962.071,480.49l-.015.023-3.077,5c1.754,2.942,3.329,5.974,3.329,8.886a6.521,6.521,0,0,1-1.248,4.309,2.68,2.68,0,0,1-3.124.772,8.988,8.988,0,0,0,6.95,2.844c.136-.161.269-.325.395-.5a13.214,13.214,0,0,0,2.288-7.43c0-4.785-2.5-8.886-4.844-12.838C962.516,481.2,962.308,480.847,962.071,480.49Z" transform="translate(-957.935 -480.49)" fill="aqua"/>
    </clipPath>
    <clipPath id="clip-path-5">
      <path id="Path_75915" data-name="Path 75915" d="M881.236,471.826l-.027.006-5.71,1.36c-.84,3.32-1.87,6.578-3.93,8.637a6.522,6.522,0,0,1-3.93,2.164,2.681,2.681,0,0,1-2.755-1.664,8.989,8.989,0,0,0,2.9,6.926c.21-.018.42-.04.629-.072a13.218,13.218,0,0,0,6.872-3.636c3.383-3.383,4.518-8.049,5.653-12.5C881.047,472.645,881.152,472.246,881.236,471.826Z" transform="translate(-864.868 -471.826)" fill="aqua"/>
    </clipPath>
    <clipPath id="clip-path-6">
      <path id="Path_75918" data-name="Path 75918" d="M838.849,420.822l-.023-.015-5-3.076c-2.942,1.753-5.974,3.329-8.886,3.329a6.522,6.522,0,0,1-4.31-1.248,2.681,2.681,0,0,1-.771-3.124,8.988,8.988,0,0,0-2.844,6.95c.161.136.325.268.5.395a13.216,13.216,0,0,0,7.43,2.288c4.784,0,8.886-2.5,12.838-4.844C838.136,421.267,838.492,421.06,838.849,420.822Z" transform="translate(-817.008 -416.687)" fill="aqua"/>
    </clipPath>
    <clipPath id="clip-path-7">
      <path id="Path_75917" data-name="Path 75917" d="M859.515,339.985l-.006-.027-1.359-5.71c-3.32-.841-6.578-1.87-8.637-3.93a6.522,6.522,0,0,1-2.164-3.93,2.681,2.681,0,0,1,1.664-2.755,8.989,8.989,0,0,0-6.926,2.9c.018.21.04.42.072.629a13.214,13.214,0,0,0,3.636,6.872c3.383,3.383,8.048,4.518,12.5,5.653C858.7,339.8,859.095,339.9,859.515,339.985Z" transform="translate(-842.086 -323.616)" fill="aqua"/>
    </clipPath>
    <clipPath id="clip-path-8">
      <path id="Path_75909" data-name="Path 75909" d="M931.724,297.6l.015-.023,3.077-5c-1.753-2.942-3.329-5.973-3.329-8.886a6.52,6.52,0,0,1,1.248-4.309,2.68,2.68,0,0,1,3.124-.771,8.987,8.987,0,0,0-6.95-2.845c-.136.161-.268.325-.395.5a13.214,13.214,0,0,0-2.288,7.43c0,4.785,2.5,8.886,4.844,12.839C931.279,296.887,931.487,297.243,931.724,297.6Z" transform="translate(-926.227 -275.759)" fill="rgba(255,255,255,0)"/>
    </clipPath>
    <linearGradient id="linear-gradient-9" x1="0.678" y1="0.751" x2="0.228" y2="0.347" gradientUnits="objectBoundingBox">
      <stop offset="0" stop-color="#04a795" stop-opacity="0"/>
      <stop offset="1" stop-color="#04a795"/>
    </linearGradient>
  </defs>
  <g id="Group_45907" data-name="Group 45907" transform="translate(-413 -80.271)">
    <g id="Group_45906" data-name="Group 45906" transform="translate(-293 -226.729)">
      <g id="Group_45903" data-name="Group 45903" transform="translate(706 307)">
        <g id="Group_45899" data-name="Group 45899">
          <g id="Mask_Group_114" data-name="Mask Group 114" transform="translate(50.407 9.508)" clip-path="url(#clip-path)">
            <rect id="Rectangle_7158" data-name="Rectangle 7158" width="16.725" height="23.393" transform="translate(9.359 -5.334) rotate(45)" fill="url(#linear-gradient)"/>
          </g>
          <g id="Mask_Group_115" data-name="Mask Group 115" transform="translate(57.8 32.126)" clip-path="url(#clip-path-2)">
            <rect id="Rectangle_7159" data-name="Rectangle 7159" width="16.725" height="22.616" transform="translate(22.256 -3.461) rotate(90)" fill="url(#linear-gradient)"/>
          </g>
          <g id="Mask_Group_116" data-name="Mask Group 116" transform="translate(55.472 50.407)" clip-path="url(#clip-path-3)">
            <rect id="Rectangle_7160" data-name="Rectangle 7160" width="15.948" height="22.616" transform="translate(22.508 8.967) rotate(135)" fill="url(#linear-gradient)"/>
          </g>
          <g id="Mask_Group_117" data-name="Mask Group 117" transform="translate(40.649 57.8)" clip-path="url(#clip-path-4)">
            <rect id="Rectangle_7161" data-name="Rectangle 7161" width="17.395" height="23.23" transform="translate(13.575 22.608) rotate(-180)" fill="url(#linear-gradient)"/>
          </g>
          <g id="Mask_Group_119" data-name="Mask Group 119" transform="translate(15.631 55.471)" clip-path="url(#clip-path-5)">
            <rect id="Rectangle_7163" data-name="Rectangle 7163" width="16.725" height="22.616" transform="translate(6.329 21.432) rotate(-135)" fill="url(#linear-gradient)"/>
          </g>
          <g id="Mask_Group_121" data-name="Mask Group 121" transform="translate(2.768 40.649)" clip-path="url(#clip-path-6)">
            <rect id="Rectangle_7165" data-name="Rectangle 7165" width="16.725" height="22.616" transform="translate(-0.397 12.841) rotate(-90)" fill="url(#linear-gradient)"/>
          </g>
          <g id="Mask_Group_120" data-name="Mask Group 120" transform="translate(9.509 15.631)" clip-path="url(#clip-path-7)">
            <rect id="Rectangle_7164" data-name="Rectangle 7164" width="16.725" height="23.393" transform="translate(-6.53 8.328) rotate(-45)" fill="url(#linear-gradient)"/>
          </g>
          <path id="Path_75910" data-name="Path 75910" d="M840.442,400.316l-3.5-2.4c-.208-.149-5.171-3.418-7.4-4.755,0,0-.467-.292-.624-.386-3.513-2.12-7.281-4.042-11.5-4.042a12.988,12.988,0,0,0-7.43,2.288,7.994,7.994,0,0,0-2.678,3.274,7.724,7.724,0,0,0,2.182,8.906,8.989,8.989,0,0,1,2.844-6.953,3.217,3.217,0,0,1,.8-1.008,7.174,7.174,0,0,1,4.276-1.276c2.912-.01,5.944,1.6,8.886,3.328h0s3.8,2.294,5.037,3.1c2,1.3,7.851,5.4,7.851,5.4.993-.207,1.7-.349,1.779-.363l4.3-.8A8.283,8.283,0,0,1,840.442,400.316Z" transform="translate(-806.715 -355.595)" fill="#fff"/>
          <path id="Path_75906" data-name="Path 75906" d="M875.625,447.159a8.239,8.239,0,0,1-2.8-.488l-4.175.777c-.252.042-6.073,1.24-8.595,1.87,0,0-.536.124-.714.168-3.983.985-8.007,2.291-10.991,5.275a12.99,12.99,0,0,0-3.636,6.872,7.993,7.993,0,0,0,.422,4.209,7.723,7.723,0,0,0,7.84,4.754,8.989,8.989,0,0,1-2.905-6.928,3.218,3.218,0,0,1-.144-1.282,7.174,7.174,0,0,1,2.121-3.926c2.052-2.067,5.338-3.068,8.637-3.93h0s4.308-1.063,5.755-1.369c2.331-.493,9.37-1.734,9.37-1.734.556-.848.952-1.446,1-1.515l2.475-3.608A8.224,8.224,0,0,1,875.625,447.159Z" transform="translate(-834.421 -397.693)" fill="#fff"/>
          <path id="Path_75907" data-name="Path 75907" d="M937.493,461.538a3.212,3.212,0,0,1-1.008-.8,7.175,7.175,0,0,1-1.276-4.276c-.01-2.912,1.6-5.944,3.328-8.886h0s2.294-3.8,3.1-5.037c1.3-2,5.4-7.851,5.4-7.851-.207-.992-.349-1.7-.363-1.779l-.8-4.3a8.283,8.283,0,0,1-4.308,4.828l-2.4,3.5c-.149.208-3.418,5.171-4.755,7.4,0,0-.292.467-.387.624-2.12,3.513-4.042,7.281-4.042,11.5a12.987,12.987,0,0,0,2.289,7.43,8,8,0,0,0,3.274,2.678,7.723,7.723,0,0,0,8.905-2.182A8.988,8.988,0,0,1,937.493,461.538Z" transform="translate(-896.843 -384.75)" fill="#fff"/>
          <path id="Path_75903" data-name="Path 75903" d="M1011.846,431.442a8.988,8.988,0,0,1-6.928,2.906,3.22,3.22,0,0,1-1.282.144,7.175,7.175,0,0,1-3.926-2.121c-2.066-2.052-3.068-5.338-3.93-8.637h0s-1.063-4.308-1.369-5.755c-.493-2.331-1.734-9.369-1.734-9.369-.848-.556-1.446-.952-1.515-1l-3.607-2.476a8.274,8.274,0,0,1,.367,6.462l.777,4.175c.042.252,1.24,6.073,1.87,8.595,0,0,.124.536.168.714.985,3.983,2.291,8.007,5.275,10.991a12.988,12.988,0,0,0,6.872,3.636,8,8,0,0,0,4.208-.422A7.723,7.723,0,0,0,1011.846,431.442Z" transform="translate(-938.944 -367.589)" fill="#fff"/>
          <path id="Path_75899" data-name="Path 75899" d="M1005.633,387.9a8.989,8.989,0,0,1-2.844,6.953,3.223,3.223,0,0,1-.8,1.008,7.175,7.175,0,0,1-4.276,1.276c-2.913.01-5.944-1.6-8.886-3.329h0s-3.8-2.294-5.037-3.1c-2-1.3-7.851-5.4-7.851-5.4-.992.207-1.7.349-1.779.363l-4.3.8a8.284,8.284,0,0,1,4.828,4.308l3.5,2.4c.208.149,5.171,3.418,7.4,4.755,0,0,.467.292.624.386,3.513,2.12,7.281,4.042,11.5,4.042a12.986,12.986,0,0,0,7.43-2.288,7.994,7.994,0,0,0,2.678-3.274A7.724,7.724,0,0,0,1005.633,387.9Z" transform="translate(-926 -353.093)" fill="#fff"/>
          <path id="Path_75904" data-name="Path 75904" d="M980.533,305.514a7.723,7.723,0,0,0-7.84-4.754,8.988,8.988,0,0,1,2.906,6.928,3.215,3.215,0,0,1,.144,1.282,7.175,7.175,0,0,1-2.121,3.926c-2.053,2.067-5.338,3.068-8.637,3.93h0s-4.308,1.063-5.755,1.369c-2.331.493-9.37,1.734-9.37,1.734-.555.848-.952,1.446-1,1.515l-2.475,3.607a8.273,8.273,0,0,1,6.461-.367l4.175-.777c.252-.042,6.073-1.24,8.595-1.87,0,0,.536-.124.714-.168,3.983-.985,8.007-2.291,10.991-5.275a12.988,12.988,0,0,0,3.635-6.872A7.99,7.99,0,0,0,980.533,305.514Z" transform="translate(-908.839 -291.255)" fill="#fff"/>
          <path id="Path_75916" data-name="Path 75916" d="M865.447,334.376a8.245,8.245,0,0,1,.488-2.8l-.777-4.175c-.042-.252-1.24-6.073-1.87-8.595,0,0-.124-.537-.168-.714-.985-3.983-2.29-8.007-5.275-10.991a12.987,12.987,0,0,0-6.872-3.635,7.99,7.99,0,0,0-4.209.422,7.723,7.723,0,0,0-4.754,7.84,8.988,8.988,0,0,1,6.928-2.905,3.217,3.217,0,0,1,1.282-.144,7.175,7.175,0,0,1,3.926,2.121c2.066,2.052,3.068,5.338,3.93,8.637h0s1.063,4.308,1.369,5.755c.493,2.331,1.734,9.369,1.734,9.369.848.555,1.446.952,1.515,1l3.607,2.475A8.225,8.225,0,0,1,865.447,334.376Z" transform="translate(-832.505 -293.173)" fill="#fff"/>
          <path id="Path_75908" data-name="Path 75908" d="M932.029,299.192l2.4-3.5c.149-.208,3.418-5.171,4.755-7.4,0,0,.292-.467.386-.624,2.12-3.513,4.042-7.281,4.042-11.5a12.986,12.986,0,0,0-2.289-7.43,7.993,7.993,0,0,0-3.274-2.678,7.724,7.724,0,0,0-8.906,2.182,8.987,8.987,0,0,1,6.953,2.845,3.217,3.217,0,0,1,1.008.8,7.17,7.17,0,0,1,1.276,4.276c.01,2.912-1.6,5.944-3.328,8.886h0s-2.294,3.8-3.1,5.037c-1.3,2-5.4,7.851-5.4,7.851.207.993.349,1.7.363,1.78l.8,4.3A8.285,8.285,0,0,1,932.029,299.192Z" transform="translate(-894.341 -265.465)" fill="#fff"/>
          <g id="Mask_Group_133" data-name="Mask Group 133" transform="translate(32.126 2.767)" clip-path="url(#clip-path-8)">
            <rect id="Rectangle_7162" data-name="Rectangle 7162" width="17.451" height="22.452" transform="translate(-3.244 -0.609)" fill="url(#linear-gradient)"/>
            <rect id="Rectangle_7162-2" data-name="Rectangle 7162" width="17.451" height="22.452" transform="translate(-34.725 20.378)" fill="url(#linear-gradient-9)"/>
          </g>
        </g>
        <g id="Group_41512" data-name="Group 41512" transform="translate(91.371 19.263)">
          <g id="Group_41506" data-name="Group 41506">
            <path id="Path_75987" data-name="Path 75987" d="M1129.8,625.675l2.626-1.976a5.637,5.637,0,0,0,4.574,2.711,3.094,3.094,0,0,0,1.948-.551,1.812,1.812,0,0,0,.706-1.51,1.58,1.58,0,0,0-.48-1.228,8.193,8.193,0,0,0-1.891-1.087l-2.005-.9q-4.518-2-4.517-5.365a4.731,4.731,0,0,1,1.75-3.826,6.706,6.706,0,0,1,4.433-1.454,7.012,7.012,0,0,1,3.67.946,6.764,6.764,0,0,1,2.485,2.583l-2.6,2a4.2,4.2,0,0,0-3.557-2.146,2.732,2.732,0,0,0-1.666.48,1.558,1.558,0,0,0-.649,1.327,1.5,1.5,0,0,0,.466,1.144,6.714,6.714,0,0,0,1.708,1l2.117.932a10.122,10.122,0,0,1,3.5,2.329,4.562,4.562,0,0,1,1.1,3.12,5.028,5.028,0,0,1-1.835,4.051A7.045,7.045,0,0,1,1137,629.8a8.1,8.1,0,0,1-7.2-4.122Z" transform="translate(-1129.801 -610.484)" fill="#fff"/>
            <path id="Path_75988" data-name="Path 75988" d="M1223.237,611.745l-6.409,11.294v7.341h-3.811v-7.312l-6.438-11.322h4.235l4.122,7.4,4.094-7.4Z" transform="translate(-1185.94 -611.405)" fill="#fff"/>
            <path id="Path_75989" data-name="Path 75989" d="M1311.378,610.824h3.811V629.8h-1.27l-10.786-11.519v11.181h-3.811V610.485h1.242l10.814,11.463Z" transform="translate(-1253.753 -610.484)" fill="#fff"/>
            <path id="Path_75990" data-name="Path 75990" d="M1395.217,630.379V611.745h12.536v3.445h-8.724v3.783h6.409v3.247h-6.409v4.715h9.063v3.444Z" transform="translate(-1323.871 -611.405)" fill="#fff"/>
            <path id="Path_75991" data-name="Path 75991" d="M1492.135,630.379h-4.292l-4.828-6.578h-2.8v6.578h-3.812V611.745h7a7.038,7.038,0,0,1,4.828,1.666,5.521,5.521,0,0,1,1.892,4.348,5.88,5.88,0,0,1-.861,3.148,5.734,5.734,0,0,1-2.414,2.16ZM1480.219,615.1v5.336h3.191a2.835,2.835,0,0,0,2.075-.734,2.606,2.606,0,0,0,.749-1.948,2.523,2.523,0,0,0-.777-1.92,2.858,2.858,0,0,0-2.047-.734Z" transform="translate(-1383.237 -611.405)" fill="#fff"/>
            <path id="Path_75992" data-name="Path 75992" d="M1559.063,620.138a8.92,8.92,0,0,1,2.866-6.861,9.65,9.65,0,0,1,7.1-2.8,9.094,9.094,0,0,1,7.849,4.037l-2.711,2.231a6.118,6.118,0,0,0-5.195-2.739,5.741,5.741,0,0,0-4.32,1.722,6.227,6.227,0,0,0,4.545,10.644,5.667,5.667,0,0,0,4.913-2.315v-1.525h-5.138v-3.3h8.95v5.506a9.871,9.871,0,0,1-3.642,3.67,10.038,10.038,0,0,1-5.252,1.384,9.5,9.5,0,0,1-7.058-2.781A9.033,9.033,0,0,1,1559.063,620.138Z" transform="translate(-1443.672 -610.481)" fill="#fff"/>
            <path id="Path_75993" data-name="Path 75993" d="M1670.887,611.745l-6.409,11.294v7.341h-3.812v-7.312l-6.437-11.322h4.235l4.123,7.4,4.094-7.4Z" transform="translate(-1513.258 -611.405)" fill="#fff"/>
          </g>
        </g>
        <g id="Group_45905" data-name="Group 45905" transform="translate(204.261 44.683)">
          <path id="Path_75999" data-name="Path 75999" d="M1552,717.147a3.733,3.733,0,0,0,.992,1.663,2.714,2.714,0,0,0,1.843.547,3.128,3.128,0,0,0,1.145-.208,3.2,3.2,0,0,0,.948-.569,2.613,2.613,0,0,0,.654-.875,2.679,2.679,0,0,0,.24-1.149,2.646,2.646,0,0,0-.405-1.543,2.574,2.574,0,0,0-1.04-.875,4.514,4.514,0,0,0-1.4-.383,13.328,13.328,0,0,0-1.51-.088V711.83a9.7,9.7,0,0,0,1.97-.164,3.313,3.313,0,0,0,1.2-.471,1.637,1.637,0,0,0,.613-.766,2.875,2.875,0,0,0,.175-1.029,2.336,2.336,0,0,0-.744-1.882,2.767,2.767,0,0,0-1.86-.635,2.593,2.593,0,0,0-1.543.492,3.056,3.056,0,0,0-1.04,1.3l-2.145-.722a4.31,4.31,0,0,1,1.871-2.2,5.619,5.619,0,0,1,2.813-.711,6.426,6.426,0,0,1,1.8.252,4.359,4.359,0,0,1,1.521.777,3.736,3.736,0,0,1,1.039,1.324,4.291,4.291,0,0,1,.383,1.871,3.519,3.519,0,0,1-.733,2.188,3.644,3.644,0,0,1-1.915,1.313v.044a3.707,3.707,0,0,1,1.291.481,3.457,3.457,0,0,1,.963.875,3.767,3.767,0,0,1,.591,1.171,4.667,4.667,0,0,1,.2,1.368,4.276,4.276,0,0,1-.427,1.959,4.115,4.115,0,0,1-1.138,1.4,4.986,4.986,0,0,1-1.641.842,6.669,6.669,0,0,1-1.959.285,5.933,5.933,0,0,1-3.119-.81,4.275,4.275,0,0,1-1.871-2.561Z" transform="translate(-1549.766 -705.045)" fill="#fff"/>
          <path id="Path_76000" data-name="Path 76000" d="M1614.469,712.506h.088a3.878,3.878,0,0,1,1.707-.35,5.314,5.314,0,0,1,1.685.285,4.483,4.483,0,0,1,1.543.886,4.6,4.6,0,0,1,1.127,1.532,5.128,5.128,0,0,1,.438,2.2,5.6,5.6,0,0,1-.427,2.265,4.643,4.643,0,0,1-2.834,2.615,6.326,6.326,0,0,1-2.057.329,5.972,5.972,0,0,1-2.057-.35A5.024,5.024,0,0,1,1612,720.91a4.878,4.878,0,0,1-1.148-1.576,4.821,4.821,0,0,1-.427-2.057,7.2,7.2,0,0,1,.11-1.313,6.217,6.217,0,0,1,.318-1.127,8.493,8.493,0,0,1,.492-1.05q.284-.514.635-1.083l3.917-6.194h2.473Zm-1.947,4.705a3.524,3.524,0,0,0,.23,1.291,2.9,2.9,0,0,0,.656,1.018,3.044,3.044,0,0,0,1.018.667,3.7,3.7,0,0,0,2.626,0,3.038,3.038,0,0,0,1.018-.667,2.924,2.924,0,0,0,.657-1.018,3.748,3.748,0,0,0,0-2.583,2.923,2.923,0,0,0-.657-1.017,3.047,3.047,0,0,0-1.018-.668,3.7,3.7,0,0,0-2.626,0,3.053,3.053,0,0,0-1.018.668,2.9,2.9,0,0,0-.656,1.017A3.528,3.528,0,0,0,1612.521,717.212Z" transform="translate(-1594.115 -706.116)" fill="#fff"/>
          <path id="Path_76001" data-name="Path 76001" d="M1676.469,713.543q0-.854.088-1.773a11.523,11.523,0,0,1,.317-1.806,9.557,9.557,0,0,1,.613-1.7,4.989,4.989,0,0,1,.984-1.411,4.615,4.615,0,0,1,1.423-.963,5.256,5.256,0,0,1,3.83,0,4.615,4.615,0,0,1,1.422.963,5.006,5.006,0,0,1,.985,1.411,9.614,9.614,0,0,1,.613,1.7,11.552,11.552,0,0,1,.317,1.806q.087.919.087,1.773a17.078,17.078,0,0,1-.219,2.626,9.027,9.027,0,0,1-.81,2.6,5.5,5.5,0,0,1-1.63,1.992,4.955,4.955,0,0,1-5.362,0,5.5,5.5,0,0,1-1.631-1.992,9.019,9.019,0,0,1-.81-2.6A17.048,17.048,0,0,1,1676.469,713.543Zm2.1,0q0,.766.1,1.816a8.9,8.9,0,0,0,.427,2.025,4.4,4.4,0,0,0,.974,1.652,2.57,2.57,0,0,0,3.479,0,4.4,4.4,0,0,0,.974-1.652,8.912,8.912,0,0,0,.427-2.025q.1-1.05.1-1.816,0-.525-.033-1.193a11.142,11.142,0,0,0-.153-1.357,8.98,8.98,0,0,0-.339-1.335,4.554,4.554,0,0,0-.58-1.16,2.788,2.788,0,0,0-.886-.821,2.692,2.692,0,0,0-2.5,0,2.8,2.8,0,0,0-.886.821,4.537,4.537,0,0,0-.58,1.16,8.861,8.861,0,0,0-.339,1.335,11,11,0,0,0-.154,1.357Q1678.57,713.018,1678.57,713.543Z" transform="translate(-1642.41 -705.402)" fill="#fff"/>
        </g>
        <g id="Group_41507" data-name="Group 41507" transform="translate(91.383 45.002)">
          <path id="Path_75994" data-name="Path 75994" d="M1129.845,722.168V707.161h2.41v5.98h7.549v-5.98h2.41v15.007h-2.41V715.3h-7.549v6.867Z" transform="translate(-1129.845 -706.911)" fill="#fff"/>
          <path id="Path_75995" data-name="Path 75995" d="M1206.9,722.168V707.161h9.868v2.16h-7.458v3.843h5.616v2.092h-5.616v4.752h7.731v2.16Z" transform="translate(-1186.19 -706.911)" fill="#fff"/>
          <path id="Path_75996" data-name="Path 75996" d="M1344.863,722.168V707.161h2.41v12.847h6.867v2.16Z" transform="translate(-1287.065 -706.911)" fill="#fff"/>
          <path id="Path_75997" data-name="Path 75997" d="M1394.15,722.168V709.321H1389.1v-2.16h12.529v2.16h-5.071v12.847Z" transform="translate(-1319.412 -706.911)" fill="#fff"/>
          <path id="Path_75998" data-name="Path 75998" d="M1461,722.168V707.161h2.411v5.98h7.549v-5.98h2.41v15.007h-2.41V715.3h-7.549v6.867Z" transform="translate(-1371.982 -706.911)" fill="#fff"/>
          <path id="Path_76002" data-name="Path 76002" d="M1278.247,721.491l-1.068-2.5h-6.755l-1.069,2.5h-2.569l6.618-15.26h.819l6.618,15.26Zm-1.933-4.571-2.5-6.209-2.524,6.209Z" transform="translate(-1229.975 -706.231)" fill="#fff"/>
        </g>
        <g id="Group_41542" data-name="Group 41542" transform="translate(91.371 68.042)">
          <path id="Path_76035" data-name="Path 76035" d="M842.22,529.6v-5.969h.959V529.6Z" transform="translate(-842.22 -523.532)" fill="#fff"/>
          <path id="Path_76036" data-name="Path 76036" d="M857.453,523.358h.959v6.069h-.325l-3.636-4.142v4.042h-.959v-6.068h.335l3.627,4.124Z" transform="translate(-850.489 -523.258)" fill="#fff"/>
          <path id="Path_76037" data-name="Path 76037" d="M879.4,529.6v-5.11h-2.008v-.859h4.983v.859H880.36v5.11Z" transform="translate(-868.025 -523.532)" fill="#fff"/>
          <path id="Path_76038" data-name="Path 76038" d="M901.5,529.6v-5.969h3.925v.859h-2.966v1.529h2.234v.832h-2.234v1.89h3.075v.859Z" transform="translate(-885.709 -523.532)" fill="#fff"/>
          <path id="Path_76039" data-name="Path 76039" d="M920.985,526.341a2.859,2.859,0,0,1,.909-2.188,3.028,3.028,0,0,1,2.238-.9,2.872,2.872,0,0,1,2.469,1.248l-.7.57a2.082,2.082,0,0,0-1.781-.941,2.047,2.047,0,0,0-1.542.624,2.175,2.175,0,0,0-.6,1.574,2.2,2.2,0,0,0,.62,1.6,2.1,2.1,0,0,0,1.578.638,1.981,1.981,0,0,0,1.782-.9v-.642h-1.836v-.85h2.795v1.682A3,3,0,0,1,925.769,529a3.231,3.231,0,0,1-1.637.425,3.019,3.019,0,0,1-2.238-.891A2.9,2.9,0,0,1,920.985,526.341Z" transform="translate(-900.004 -523.257)" fill="#fff"/>
          <path id="Path_76040" data-name="Path 76040" d="M954.558,529.6h-1.094l-1.7-2.306h-1.095V529.6h-.959v-5.969h2.18a2.091,2.091,0,0,1,1.465.511,1.7,1.7,0,0,1,.561,1.316,1.784,1.784,0,0,1-.3,1.031,1.753,1.753,0,0,1-.845.651Zm-3.889-5.119v1.962h1.2a1.085,1.085,0,0,0,.773-.267.925.925,0,0,0,.285-.71.941.941,0,0,0-.285-.715,1.074,1.074,0,0,0-.773-.271Z" transform="translate(-921.078 -523.532)" fill="#fff"/>
          <path id="Path_76041" data-name="Path 76041" d="M975.658,529.327l-.425-.995h-2.686l-.425.995H971.1l2.632-6.068h.326l2.632,6.068Zm-.769-1.818-.995-2.469-1,2.469Z" transform="translate(-936.77 -523.258)" fill="#fff"/>
          <path id="Path_76042" data-name="Path 76042" d="M994.87,529.6v-5.11h-2.008v-.859h4.983v.859h-2.017v5.11Z" transform="translate(-952.736 -523.532)" fill="#fff"/>
          <path id="Path_76043" data-name="Path 76043" d="M1016.968,529.6v-5.969h3.925v.859h-2.966v1.529h2.234v.832h-2.234v1.89H1021v.859Z" transform="translate(-970.421 -523.532)" fill="#fff"/>
          <path id="Path_76044" data-name="Path 76044" d="M1038.323,529.6v-5.969h1.872a3.339,3.339,0,0,1,2.351.823,2.788,2.788,0,0,1,.9,2.152,2.816,2.816,0,0,1-.9,2.153,3.3,3.3,0,0,1-2.347.841Zm.959-.859h.9a2.286,2.286,0,0,0,1.651-.592,2.037,2.037,0,0,0,.62-1.542,2,2,0,0,0-.615-1.533,2.329,2.329,0,0,0-1.655-.574h-.9Z" transform="translate(-986.087 -523.532)" fill="#fff"/>
          <path id="Path_76045" data-name="Path 76045" d="M1074.038,526.341a2.85,2.85,0,0,1,.913-2.188,3.02,3.02,0,0,1,2.225-.9,3.059,3.059,0,0,1,1.492.371,2.8,2.8,0,0,1,1.067,1l-.723.534a2.159,2.159,0,0,0-3.365-.4,2.333,2.333,0,0,0,0,3.156,2.16,2.16,0,0,0,3.365-.4l.723.534a2.754,2.754,0,0,1-1.062,1.008,3.08,3.08,0,0,1-1.5.367,3.022,3.022,0,0,1-2.225-.9A2.85,2.85,0,0,1,1074.038,526.341Z" transform="translate(-1012.288 -523.257)" fill="#fff"/>
          <path id="Path_76046" data-name="Path 76046" d="M1103.926,529.327l-.426-.995h-2.686l-.424.995h-1.022l2.632-6.068h.326l2.632,6.068Zm-.769-1.818-.995-2.469-1,2.469Z" transform="translate(-1030.872 -523.258)" fill="#fff"/>
          <path id="Path_76047" data-name="Path 76047" d="M1130.8,529.6H1129.7l-1.7-2.306h-1.094V529.6h-.958v-5.969h2.179a2.091,2.091,0,0,1,1.465.511,1.7,1.7,0,0,1,.561,1.316,1.783,1.783,0,0,1-.3,1.031,1.751,1.751,0,0,1-.845.651Zm-3.889-5.119v1.962h1.2a1.085,1.085,0,0,0,.773-.267.925.925,0,0,0,.285-.71.94.94,0,0,0-.285-.715,1.074,1.074,0,0,0-.773-.271Z" transform="translate(-1050.375 -523.532)" fill="#fff"/>
          <path id="Path_76048" data-name="Path 76048" d="M1149.412,529.6v-5.969h3.925v.859h-2.966v1.529h2.234v.832h-2.234v1.89h3.075v.859Z" transform="translate(-1067.586 -523.532)" fill="#fff"/>
          <g id="Group_41532" data-name="Group 41532" transform="translate(94.649 0)">
            <path id="Path_76049" data-name="Path 76049" d="M1197.549,529.6v-5.969h3.925v.859h-2.966v1.529h2.234v.832h-2.234v1.89h3.075v.859Z" transform="translate(-1197.549 -523.532)" fill="#fff"/>
            <path id="Path_76050" data-name="Path 76050" d="M1221.346,523.632h1.076l-2.632,6.068h-.326l-2.632-6.068h1.077l1.718,4.151Z" transform="translate(-1211.697 -523.532)" fill="#fff"/>
            <path id="Path_76051" data-name="Path 76051" d="M1243.417,529.6v-5.969h3.925v.859h-2.966v1.529h2.234v.832h-2.234v1.89h3.075v.859Z" transform="translate(-1231.199 -523.532)" fill="#fff"/>
            <path id="Path_76052" data-name="Path 76052" d="M1269.62,529.6h-1.094l-1.7-2.306h-1.094V529.6h-.959v-5.969h2.18a2.089,2.089,0,0,1,1.465.511,1.7,1.7,0,0,1,.561,1.316,1.781,1.781,0,0,1-.3,1.031,1.752,1.752,0,0,1-.845.651Zm-3.889-5.119v1.962h1.2a1.086,1.086,0,0,0,.773-.267.926.926,0,0,0,.284-.71.942.942,0,0,0-.284-.715,1.076,1.076,0,0,0-.773-.271Z" transform="translate(-1246.866 -523.532)" fill="#fff"/>
            <path id="Path_76053" data-name="Path 76053" d="M1290.295,523.632l-2.062,3.563V529.6h-.959V527.2l-2.062-3.563h1.067l1.474,2.6,1.483-2.6Z" transform="translate(-1261.861 -523.532)" fill="#fff"/>
            <path id="Path_76054" data-name="Path 76054" d="M1316.341,523.358h1.049l-2.324,6.069h-.316l-1.782-4.233-1.782,4.233h-.326l-2.324-6.069h1.058l1.492,4.033,1.709-4.133h.334l1.718,4.133Z" transform="translate(-1278.973 -523.258)" fill="#fff"/>
            <path id="Path_76055" data-name="Path 76055" d="M1347.852,529.6v-5.969h.959v2.378h3v-2.378h.959V529.6h-.959v-2.731h-3V529.6Z" transform="translate(-1307.816 -523.532)" fill="#fff"/>
            <path id="Path_76056" data-name="Path 76056" d="M1374.029,529.6v-5.969h3.925v.859h-2.966v1.529h2.234v.832h-2.234v1.89h3.074v.859Z" transform="translate(-1327.02 -523.532)" fill="#fff"/>
            <path id="Path_76057" data-name="Path 76057" d="M1400.231,529.6h-1.094l-1.7-2.306h-1.094V529.6h-.958v-5.969h2.18a2.089,2.089,0,0,1,1.464.511,1.7,1.7,0,0,1,.561,1.316,1.781,1.781,0,0,1-.3,1.031,1.752,1.752,0,0,1-.846.651Zm-3.889-5.119v1.962h1.2a1.087,1.087,0,0,0,.773-.267.926.926,0,0,0,.285-.71.942.942,0,0,0-.285-.715,1.077,1.077,0,0,0-.773-.271Z" transform="translate(-1342.687 -523.532)" fill="#fff"/>
            <path id="Path_76058" data-name="Path 76058" d="M1418.845,529.6v-5.969h3.925v.859H1419.8v1.529h2.234v.832H1419.8v1.89h3.075v.859Z" transform="translate(-1359.899 -523.532)" fill="#fff"/>
          </g>
          <circle id="Ellipse_2901" data-name="Ellipse 2901" cx="0.957" cy="0.957" r="0.957" transform="translate(89.297 2.062)" fill="#fff"/>
        </g>
      </g>
    </g>
  </g>
</svg>
