<svg xmlns="http://www.w3.org/2000/svg" width="68" height="68" viewBox="0 0 68 68">
  <g id="Group_57229" data-name="Group 57229" transform="translate(-1169 -297)">
    <circle id="Ellipse_2476" data-name="Ellipse 2476" cx="34" cy="34" r="34" transform="translate(1169 297)" fill="#fff"/>
    <g id="Group_49142" data-name="Group 49142" transform="translate(1161 11)">
      <g id="point" transform="translate(26 304)">
        <path id="Path_104135" data-name="Path 104135" d="M27.311,4.686a16,16,0,1,0,0,22.625,15.894,15.894,0,0,0,0-22.625ZM16,30.122A14.123,14.123,0,1,1,30.122,16,14.139,14.139,0,0,1,16,30.122Z" transform="translate(0 0)" fill="#3c5d4b"/>
        <path id="Path_104136" data-name="Path 104136" d="M102.962,85.656l-5.5-2.871-4.219-4.3a.937.937,0,0,0-1.34,0l-4.186,4.294-5.53,2.87a.938.938,0,0,0-.387,1.289l2.913,5.216.778,6.321a.938.938,0,0,0,1.133.8l5.966-1.319,5.934,1.319a.938.938,0,0,0,1.134-.8l.809-6.325,2.885-5.219A.938.938,0,0,0,102.962,85.656Z" transform="translate(-76.574 -73.32)" fill="#3c5d4b"/>
        <path id="Path_104137" data-name="Path 104137" d="M211.627,198.977h-1.983a.939.939,0,0,0-.937.938v0h0v7.121a.937.937,0,0,0,1.875,0v-2.162l1.046,0a2.948,2.948,0,1,0,0-5.9Zm0,4.021-1.037,0c-.006-1.238,0-.636-.006-2.15h1.044a1.074,1.074,0,1,1,0,2.146Z" transform="translate(-195.662 -186.541)" fill="#fff"/>
      </g>
    </g>
  </g>
</svg>
