<svg xmlns="http://www.w3.org/2000/svg" width="29.548" height="36.86" viewBox="0 0 29.548 36.86"><g transform="translate(-7.85 -1.85)"><path d="M34.2,2H11.047A3.047,3.047,0,0,0,8,5.047V34.9a3.656,3.656,0,0,0,3.656,3.656H34.2a3.047,3.047,0,0,0,3.047-3.047V5.047A3.047,3.047,0,0,0,34.2,2ZM12.875,3.219h4.875v7.873L15.69,9.446a.6.6,0,0,0-.756,0l-2.06,1.645ZM36.029,32.467A1.833,1.833,0,0,1,34.2,34.294H14.7a.609.609,0,1,0,0,1.219H34.2a3,3,0,0,0,1.828-.628v.628A1.833,1.833,0,0,1,34.2,37.341H11.656a2.437,2.437,0,0,1,0-4.875H34.2a3.038,3.038,0,0,0,1.828-.609Zm0-3.047A1.833,1.833,0,0,1,34.2,31.248H11.656a3.643,3.643,0,0,0-2.437.938V5.047a1.833,1.833,0,0,1,1.828-1.828h.609v9.14a.609.609,0,0,0,.347.548.6.6,0,0,0,.64-.073L15.312,10.7l2.669,2.133a.586.586,0,0,0,.378.134.553.553,0,0,0,.262-.061.609.609,0,0,0,.347-.548V3.219H34.2a1.833,1.833,0,0,1,1.828,1.828Z" fill="#fff" stroke="#fff" stroke-width="0.3"/><path d="M13.828,55H12.609a.609.609,0,1,0,0,1.219h1.219a.609.609,0,1,0,0-1.219Z" transform="translate(-1.563 -20.705)" fill="#fff" stroke="#fff" stroke-width="0.3"/><path d="M43.609,43.265h1.828a1.828,1.828,0,0,0,1.828-1.828V39.609a.609.609,0,0,0-1.219,0v1.828a.609.609,0,0,1-.609.609H43.609a.609.609,0,0,0,0,1.219Z" transform="translate(-13.673 -14.455)" fill="#fff" stroke="#fff" stroke-width="0.3"/><path d="M21.269,25.586l2.761,2.006-1.054,3.245A1.219,1.219,0,0,0,24.851,32.2l2.761-2.006L30.372,32.2a1.218,1.218,0,0,0,1.875-1.362l-1.054-3.245,2.761-2.006a1.219,1.219,0,0,0-.717-2.2H29.825l-1.056-3.245a1.219,1.219,0,0,0-2.315,0L25.4,23.382H21.985a1.219,1.219,0,0,0-.717,2.2Z" transform="translate(-4.987 -6.758)" fill="#ff9000"/></g></svg>