<svg xmlns="http://www.w3.org/2000/svg" width="44" height="44" viewBox="0 0 44 44">
  <g id="Group_57230" data-name="Group 57230" transform="translate(-1331 -809)">
    <circle id="Ellipse_2409" data-name="Ellipse 2409" cx="22" cy="22" r="22" transform="translate(1331 809)" fill="#fff"/>
    <g id="Group_56534" data-name="Group 56534" transform="translate(1317 517)">
      <g id="point" transform="translate(26 304)">
        <path id="Path_104135" data-name="Path 104135" d="M17.069,2.929a10,10,0,1,0,0,14.141,9.934,9.934,0,0,0,0-14.141ZM10,18.826A8.827,8.827,0,1,1,18.826,10,8.837,8.837,0,0,1,10,18.826Z" fill="#3c5d4b"/>
        <path id="Path_104136" data-name="Path 104136" d="M94.981,82.863l-3.439-1.794-2.637-2.685a.586.586,0,0,0-.837,0l-2.616,2.684L82,82.862a.587.587,0,0,0-.242.806l1.821,3.26.486,3.951a.586.586,0,0,0,.708.5l3.728-.824,3.709.824a.587.587,0,0,0,.709-.5l.505-3.953,1.8-3.262A.586.586,0,0,0,94.981,82.863Z" transform="translate(-78.489 -75.153)" fill="#3c5d4b"/>
        <path id="Path_104137" data-name="Path 104137" d="M210.532,198.977h-1.24a.587.587,0,0,0-.586.586h0v4.451a.586.586,0,1,0,1.172,0v-1.351l.654,0a1.843,1.843,0,1,0,0-3.685Zm0,2.513-.648,0c0-.774,0-.4,0-1.344h.652a.671.671,0,1,1,0,1.341Z" transform="translate(-200.553 -191.204)" fill="#fff"/>
      </g>
    </g>
  </g>
</svg>
