<svg xmlns="http://www.w3.org/2000/svg" width="45.738" height="35.7" viewBox="0 0 45.738 35.7"><g transform="translate(-293.699 -1084)"><circle cx="10" cy="10" r="10" transform="translate(316.481 1084)" fill="#ff9000"/><g transform="translate(293.849 1077.48)"><path d="M42.447,250.131c-.06.008.274-.073-5.093,1.277a.668.668,0,0,0,.326,1.3l4.978-1.253a1.306,1.306,0,0,1,.863,2.382c-.046.023-15.255,7.733-15.3,7.76a5.527,5.527,0,0,1-5.962-.016c-.777-.5-.716-.442-6.3-3.173a21.449,21.449,0,0,0-6.675-1.785v-8.349h9.767a1.874,1.874,0,0,1,1.334.552l4.906,4.906a1.528,1.528,0,0,1,.053,2.131,1.494,1.494,0,0,1-2.133.019l-4.42-4.421a.668.668,0,1,0-.945.945l4.42,4.421a2.822,2.822,0,0,0,4.766-1.44l8.054-2.027a.668.668,0,0,0-.326-1.3l-7.792,1.961a2.887,2.887,0,0,0-.732-1.238l-4.907-4.907a3.2,3.2,0,0,0-2.278-.944H9.267a3.379,3.379,0,0,0-3.354-3H3.374A3.378,3.378,0,0,0,0,247.3v7.682a.668.668,0,0,0,1.336,0V247.3a2.041,2.041,0,0,1,2.038-2.038H5.913a2.043,2.043,0,0,1,2,1.668c.048.259.034-.655.034,12.223A2.041,2.041,0,0,1,5.913,261.2H3.374a2.041,2.041,0,0,1-2.038-2.039v-1.5a.668.668,0,0,0-1.336,0v1.5a3.379,3.379,0,0,0,3.374,3.375H5.913a3.379,3.379,0,0,0,3.374-3.375v-1.182a19.569,19.569,0,0,1,6.088,1.63c5.576,2.728,5.463,2.646,6.162,3.1a6.865,6.865,0,0,0,7.375.038c.045-.023,15.259-7.735,15.3-7.762a2.641,2.641,0,0,0-1.767-4.846Zm0,0" transform="translate(0 -221.826)" fill="#fff" stroke="#fff" stroke-width="0.3"/><path d="M31.3,374.683a2.269,2.269,0,1,0-2.269,2.269A2.271,2.271,0,0,0,31.3,374.683Zm-3.2,0a.933.933,0,1,1,.933.932A.933.933,0,0,1,28.094,374.683Zm0,0" transform="translate(-24.383 -338.908)" fill="#fff" stroke="#fff" stroke-width="0.3"/><path d="M281.238,87.605a1.215,1.215,0,1,1-1.215-1.215A1.214,1.214,0,0,1,281.238,87.605Zm0,0" transform="translate(-251.811 -73.546)" fill="#fff" stroke="#fff" stroke-width="0.3"/><path d="M398.269,87.605a1.215,1.215,0,1,1-1.214-1.215A1.214,1.214,0,0,1,398.269,87.605Zm0,0" transform="translate(-360.678 -73.546)" fill="#fff" stroke="#fff" stroke-width="0.3"/><path d="M311.892,137.773a.525.525,0,0,0-.525.525v1.046a3.025,3.025,0,0,0,6.051,0V138.3a.525.525,0,1,0-1.051,0v1.046a1.975,1.975,0,0,1-3.95,0V138.3A.525.525,0,0,0,311.892,137.773Zm0,0" transform="translate(-282.098 -121.345)" fill="#fff" stroke="#fff" stroke-width="0.3"/></g></g></svg>