<svg xmlns="http://www.w3.org/2000/svg" width="64" height="64" viewBox="0 0 64 64">
  <g id="Group_57147" data-name="Group 57147" transform="translate(-1218 -56)">
    <circle id="Ellipse_331" data-name="Ellipse 331" cx="32" cy="32" r="32" transform="translate(1218 56)" fill="#fff" opacity="0.1"/>
    <g id="Group_57144" data-name="Group 57144" transform="translate(940 5)">
      <g id="notifications_black_24dp" transform="translate(289 62)">
        <path id="Path_30" data-name="Path 30" d="M0,0H42V42H0Z" fill="none"/>
        <g id="Group_57132" data-name="Group 57132" transform="translate(7 4)">
          <g id="_09-timer" data-name="09-timer" transform="translate(0 0)">
            <path id="Path_108754" data-name="Path 108754" d="M31.738,9.82l1.975-1.975L31.77,5.9,29.657,8.014A13.659,13.659,0,0,0,23.12,5.567V2.749h2.749V0H17.622V2.749h2.749V5.567a13.659,13.659,0,0,0-6.537,2.447L11.721,5.9,9.777,7.845,11.752,9.82a13.745,13.745,0,1,0,19.986,0ZM21.745,30.24a11,11,0,1,1,11-11,11,11,0,0,1-11,11Z" transform="translate(-8 0)" fill="#ff9000"/>
            <path id="Path_108755" data-name="Path 108755" d="M32.247,32v8.247H24A8.247,8.247,0,1,0,32.247,32Z" transform="translate(-18.502 -21.004)" fill="#ff9000"/>
          </g>
        </g>
      </g>
    </g>
  </g>
</svg>
