<svg xmlns="http://www.w3.org/2000/svg" xmlns:xlink="http://www.w3.org/1999/xlink" width="80" height="80" viewBox="0 0 80 80">
  <defs>
    <linearGradient id="linear-gradient" x1="0.217" y1="0.198" x2="0.81" y2="0.784" gradientUnits="objectBoundingBox">
      <stop offset="0" stop-color="#fece14"/>
      <stop offset="1" stop-color="#fece14" stop-opacity="0"/>
    </linearGradient>
  </defs>
  <g id="Group_56810" data-name="Group 56810" transform="translate(-299 -646)">
    <circle id="Ellipse_1402" data-name="Ellipse 1402" cx="40" cy="40" r="40" transform="translate(299 646)" fill="#f6f8f9"/>
    <g id="Group_56814" data-name="Group 56814" transform="translate(20135 7663)">
      <path id="Path_106820" data-name="Path 106820" d="M-4400.992,2852.891v-10.368l2.576-1.86h11.517l2.5,1.431v12.734l-2.218,1.717h-11.017l-3.362,1.788-1.431-1.788Z" transform="translate(-15392.615 -9833.559)" opacity="0.6" fill="url(#linear-gradient)"/>
      <rect id="Rectangle_10300" data-name="Rectangle 10300" width="36.667" height="5" rx="1" transform="translate(-19814.332 -6965.667)" opacity="0.6" fill="url(#linear-gradient)"/>
      <g id="lecture" transform="translate(-19816 -6994)">
        <path id="Path_106812" data-name="Path 106812" d="M36.8,50.954a3.52,3.52,0,0,0,3.2-3.5V36.516A3.52,3.52,0,0,0,36.484,33H24.844a3.52,3.52,0,0,0-3.516,3.516v4.609H6.719A3.52,3.52,0,0,0,3.2,44.641V58.7a3.5,3.5,0,0,0,.2,1.172h-1.3A2.112,2.112,0,0,0,0,61.984a5.866,5.866,0,0,0,5.859,5.859H34.141A5.866,5.866,0,0,0,40,61.984a2.112,2.112,0,0,0-2.109-2.109H36.6a3.5,3.5,0,0,0,.2-1.172ZM23.672,36.516a1.173,1.173,0,0,1,1.172-1.172H36.484a1.173,1.173,0,0,1,1.172,1.172V47.453a1.173,1.173,0,0,1-1.172,1.172H25.625A1.172,1.172,0,0,0,25,48.8L22.641,50.28l.981-3.271a1.173,1.173,0,0,0,.049-.337ZM34.141,65.5H5.859a3.52,3.52,0,0,1-3.508-3.281h35.3A3.52,3.52,0,0,1,34.141,65.5ZM11.172,51.047A1.328,1.328,0,1,1,12.5,52.375,1.33,1.33,0,0,1,11.172,51.047Zm-.625,5c0-.708.913-1.328,1.953-1.328a2.392,2.392,0,0,1,1.475.478,1.154,1.154,0,0,1,.478.851v3.828H10.547Zm6.25,3.828V56.047a3.457,3.457,0,0,0-1.358-2.681l-.059-.045a3.672,3.672,0,1,0-5.758,0A3.454,3.454,0,0,0,8.2,56.047v3.828H6.719A1.173,1.173,0,0,1,5.547,58.7V44.641a1.173,1.173,0,0,1,1.172-1.172H21.328V46.5L20.4,49.606a2.341,2.341,0,0,0,3.487,2.661l2.078-1.3h8.492V58.7a1.173,1.173,0,0,1-1.172,1.172Z" transform="translate(0 -33)" fill="#3c5d4b"/>
        <path id="Path_106813" data-name="Path 106813" d="M364.672,169h-2.5a1.172,1.172,0,0,0,0,2.344h2.5a1.172,1.172,0,0,0,0-2.344Z" transform="translate(-332.797 -158.375)" fill="#3c5d4b"/>
        <path id="Path_106814" data-name="Path 106814" d="M338.172,99.344h6.25a1.172,1.172,0,0,0,0-2.344h-6.25a1.172,1.172,0,0,0,0,2.344Z" transform="translate(-310.672 -92)" fill="#3c5d4b"/>
      </g>
    </g>
  </g>
</svg>
