<svg xmlns="http://www.w3.org/2000/svg" xmlns:xlink="http://www.w3.org/1999/xlink" width="80" height="80" viewBox="0 0 80 80">
  <defs>
    <linearGradient id="linear-gradient" x1="0.217" y1="0.198" x2="0.81" y2="0.784" gradientUnits="objectBoundingBox">
      <stop offset="0" stop-color="#fece14"/>
      <stop offset="1" stop-color="#fece14" stop-opacity="0"/>
    </linearGradient>
  </defs>
  <g id="Group_56811" data-name="Group 56811" transform="translate(-299 -646)">
    <circle id="Ellipse_1402" data-name="Ellipse 1402" cx="40" cy="40" r="40" transform="translate(299 646)" fill="#f6f8f9"/>
    <g id="Group_56816" data-name="Group 56816" transform="translate(20314 7573)">
      <path id="Path_106821" data-name="Path 106821" d="M-4576.948,2927.9v6.989s-14.308,3.577-7.539,18.324c-2.366,2.091-5.393,5.063-5.393,5.063s-12.405-20.2,10.937-30.376C-4576.974,2927.185-4576.948,2927.9-4576.948,2927.9Z" transform="translate(-15400.448 -9833.611)" opacity="0.6" fill="url(#linear-gradient)"/>
      <path id="Path_106822" data-name="Path 106822" d="M-4580.556,2927.582v7.673s5.578-.3,9.148,8.851c1.244-.069,6.992,0,6.992,0s-.447-11.751-14.058-16.065A3.271,3.271,0,0,1-4580.556,2927.582Z" transform="translate(-15392.037 -9833.611)" opacity="0.6" fill="url(#linear-gradient)"/>
      <path id="Path_106823" data-name="Path 106823" d="M-4584,2948.1s13.2,6.407,18.268-7.646c3.059-.023,6.872,0,6.872,0s-4.389,24.684-29.916,13.178A48.644,48.644,0,0,1-4584,2948.1Z" transform="translate(-15397.516 -9825.038)" opacity="0.6" fill="url(#linear-gradient)"/>
      <g id="pie-chart_1_" data-name="pie-chart (1)" transform="translate(-19995 -6907)">
        <path id="Path_106815" data-name="Path 106815" d="M0,20A19.774,19.774,0,0,0,4.263,32.216l.815,1.048,6.656-6.656A11.136,11.136,0,0,1,9.454,20,10.582,10.582,0,0,1,17.893,9.661l.938-.191V0L17.514.164A20.207,20.207,0,0,0,0,20ZM16.487,7.592A12.889,12.889,0,0,0,8.747,26.28L5.332,29.7A17.322,17.322,0,0,1,2.344,20,17.885,17.885,0,0,1,16.487,2.706Z" transform="translate(0 0)" fill="#3c5d4b"/>
        <path id="Path_106816" data-name="Path 106816" d="M109.807,271.868a10.583,10.583,0,0,1-10.336,8.438,11.068,11.068,0,0,1-6.611-2.28L86.2,284.682l1.048.815a19.775,19.775,0,0,0,12.219,4.263A20.059,20.059,0,0,0,119.3,272.247l.164-1.317H110Zm6.956,1.406A17.674,17.674,0,0,1,99.47,287.417a17.323,17.323,0,0,1-9.7-2.988l3.415-3.415a12.889,12.889,0,0,0,18.688-7.739h4.887Z" transform="translate(-79.467 -249.761)" fill="#3c5d4b"/>
        <path id="Path_106817" data-name="Path 106817" d="M213.344,150.93v2.546a3.516,3.516,0,0,0,1.172,6.831,1.172,1.172,0,1,1-1.172,1.172H211a3.522,3.522,0,0,0,2.344,3.314v2.546h2.343v-2.545a3.516,3.516,0,0,0-1.171-6.83,1.172,1.172,0,1,1,1.172-1.172h2.344a3.522,3.522,0,0,0-2.344-3.315V150.93Z" transform="translate(-194.513 -139.137)" fill="#3c5d4b"/>
        <path id="Path_106818" data-name="Path 106818" d="M289.661,17.508A20.073,20.073,0,0,0,272.317.164L271,0V9.47l.938.191a10.529,10.529,0,0,1,8.226,8.226l.191.938h9.47Zm-7.428-1.027a12.938,12.938,0,0,0-8.889-8.889V2.7A17.607,17.607,0,0,1,287.12,16.481Z" transform="translate(-249.825 0)" fill="#3c5d4b"/>
      </g>
    </g>
  </g>
</svg>
