<svg id="Group_56809" data-name="Group 56809" xmlns="http://www.w3.org/2000/svg" xmlns:xlink="http://www.w3.org/1999/xlink" width="64" height="64" viewBox="0 0 64 64">
  <defs>
    <linearGradient id="linear-gradient" x1="0.217" y1="0.198" x2="0.81" y2="0.784" gradientUnits="objectBoundingBox">
      <stop offset="0" stop-color="#fece14"/>
      <stop offset="1" stop-color="#fece14" stop-opacity="0"/>
    </linearGradient>
  </defs>
  <circle id="Ellipse_1402" data-name="Ellipse 1402" cx="32" cy="32" r="32" fill="#f6f8f9"/>
  <g id="Group_57452" data-name="Group 57452" transform="translate(4744.666 -3745.865)">
    <g id="Group_57442" data-name="Group 57442" transform="translate(-4728.665 3763.865)">
      <g id="Group_57441" data-name="Group 57441">
        <path id="Path_108779" data-name="Path 108779" d="M-4730.143,3767.013h25.776v4.584l-6.451,13.338-19.325-.349-.4-9.359Z" transform="translate(4730.902 -3759.933)" opacity="0.6" fill="url(#linear-gradient)"/>
        <g id="Group_57242" data-name="Group 57242" transform="translate(0 0)">
          <g id="Group_57241" data-name="Group 57241" transform="translate(0 0)">
            <path id="Path_108773" data-name="Path 108773" d="M43.813,46.512H17.6a.6.6,0,1,1,0-1.206H43.812a.6.6,0,0,1,0,1.206ZM37.57,65.388H20.224A3.227,3.227,0,0,1,17,62.164V44.053a3.228,3.228,0,0,1,3.224-3.225H41.192a3.228,3.228,0,0,1,3.224,3.225v11.1a.6.6,0,1,1-1.206,0v-11.1a2.021,2.021,0,0,0-2.018-2.019H20.224a2.021,2.021,0,0,0-2.018,2.019V62.164a2.02,2.02,0,0,0,2.018,2.018H37.57a.6.6,0,0,1,0,1.206ZM23.66,43.644a.6.6,0,0,1-.6-.6V39.823a.6.6,0,0,1,1.206,0v3.219A.6.6,0,0,1,23.66,43.644Zm7.047,0a.6.6,0,0,1-.6-.6V39.823a.6.6,0,0,1,1.206,0v3.219A.6.6,0,0,1,30.708,43.644Zm7.048,0a.6.6,0,0,1-.6-.6V39.823a.6.6,0,0,1,1.206,0v3.219A.6.6,0,0,1,37.756,43.644ZM41.844,67.22a6.5,6.5,0,1,1,6.5-6.5A6.512,6.512,0,0,1,41.844,67.22Zm0-11.8a5.3,5.3,0,1,0,5.3,5.3,5.306,5.306,0,0,0-5.3-5.3Z" transform="translate(-17 -39.22)" fill="#3c5d4b" stroke="#3c5d4b" stroke-width="0.5"/>
            <path id="Path_108776" data-name="Path 108776" d="M95.777,82.95h16.11a.827.827,0,0,0,0-1.655H95.777a.827.827,0,1,0,0,1.655Z" transform="translate(-90.725 -70.394)" fill="#3c5d4b"/>
            <path id="Path_108777" data-name="Path 108777" d="M105.65,164.009H95.777a.827.827,0,1,0,0,1.655h9.873a.827.827,0,1,0,0-1.655Z" transform="translate(-90.725 -148.546)" fill="#3c5d4b"/>
            <path id="Path_108778" data-name="Path 108778" d="M101.582,164.009h-6.12c-.283,0-.513.37-.513.827s.23.827.513.827h6.12c.283,0,.513-.37.513-.827S101.866,164.009,101.582,164.009Z" transform="translate(-90.725 -144.695)" fill="#3c5d4b"/>
          </g>
        </g>
      </g>
      <path id="Path_108774" data-name="Path 108774" d="M212.046,150.93v1.136a1.569,1.569,0,0,0,.523,3.048.523.523,0,1,1-.523.523H211a1.572,1.572,0,0,0,1.046,1.479v1.136h1.046v-1.136a1.569,1.569,0,0,0-.523-3.048.523.523,0,1,1,.523-.523h1.046a1.572,1.572,0,0,0-1.046-1.479V150.93Z" transform="translate(-187.654 -133.203)" fill="#3c5d4b"/>
    </g>
  </g>
</svg>
