<svg xmlns="http://www.w3.org/2000/svg" xmlns:xlink="http://www.w3.org/1999/xlink" width="80" height="80" viewBox="0 0 80 80">
  <defs>
    <linearGradient id="linear-gradient" x1="0.217" y1="0.198" x2="0.81" y2="0.784" gradientUnits="objectBoundingBox">
      <stop offset="0" stop-color="#fece14"/>
      <stop offset="1" stop-color="#fece14" stop-opacity="0"/>
    </linearGradient>
  </defs>
  <g id="Group_56812" data-name="Group 56812" transform="translate(-299 -646)">
    <circle id="Ellipse_1402" data-name="Ellipse 1402" cx="40" cy="40" r="40" transform="translate(299 646)" fill="#f6f8f9"/>
    <g id="Group_56817" data-name="Group 56817" transform="translate(20136 7573)">
      <path id="Path_106824" data-name="Path 106824" d="M-4409.833,2937.677l11.99,4.931,12.956-4.931-.483,4.931-1.74.58v5.028l1.74.677v5.415l-12.473,4.254-12.763-4.931v-5.415l1.836-.58v-3.965l-1.836-1.547Z" transform="translate(-15399.404 -9826.883)" opacity="0.6" fill="url(#linear-gradient)"/>
      <g id="reading-book_3_" data-name="reading-book (3)" transform="translate(-19814 -6907)">
        <path id="Path_106819" data-name="Path 106819" d="M74.588,25.782a3.913,3.913,0,0,0-3.125-3.828V17.735a1.172,1.172,0,0,0-1.583-1.1l-2.237.839a13.663,13.663,0,0,0-5.211-3.383,7.813,7.813,0,1,0-9.283,0,13.664,13.664,0,0,0-5.211,3.383L45.7,16.637a1.172,1.172,0,0,0-1.583,1.1v4.219a3.907,3.907,0,0,0,0,7.655v4.532a1.172,1.172,0,0,0,.76,1.1l12.5,4.688a1.185,1.185,0,0,0,.823,0l12.5-4.688a1.172,1.172,0,0,0,.76-1.1V29.61A3.913,3.913,0,0,0,74.588,25.782ZM52.322,7.813a5.469,5.469,0,1,1,5.469,5.469A5.475,5.475,0,0,1,52.322,7.813Zm5.469,7.813a11.311,11.311,0,0,1,7.414,2.765l-7.414,2.78-7.414-2.78A11.311,11.311,0,0,1,57.791,15.625ZM43.338,25.782A1.564,1.564,0,0,1,44.9,24.219h.781v3.125H44.9A1.564,1.564,0,0,1,43.338,25.782Zm3.125,3.867a1.957,1.957,0,0,0,1.563-1.914V23.829a1.957,1.957,0,0,0-1.563-1.914V19.426l10.156,3.809v13.9L46.463,33.329Zm12.5,7.489v-13.9L69.12,19.426v2.489a1.957,1.957,0,0,0-1.563,1.914v3.906a1.957,1.957,0,0,0,1.563,1.914v3.68Zm11.719-9.794H69.9V24.219h.781a1.563,1.563,0,0,1,0,3.125Z" transform="translate(-40.994)" fill="#3c5d4b"/>
      </g>
    </g>
  </g>
</svg>
