<svg xmlns="http://www.w3.org/2000/svg" width="64" height="64" viewBox="0 0 64 64">
  <g id="ic_twitter" transform="translate(-306 -887)">
    <g id="ic_twitter-2" data-name="ic_twitter" transform="translate(0 167)">
      <g id="Group_57223" data-name="Group 57223" transform="translate(73 69)">
        <circle id="Ellipse_2447" data-name="Ellipse 2447" cx="32" cy="32" r="32" transform="translate(233 651)" fill="#1da1f2"/>
        <path id="twitter-6" d="M9.284,24c11.14,0,17.232-9.233,17.232-17.239q0-.393-.017-.783A12.318,12.318,0,0,0,29.52,2.841a12.07,12.07,0,0,1-3.478.954A6.08,6.08,0,0,0,28.705.444a12.145,12.145,0,0,1-3.846,1.471A6.062,6.062,0,0,0,14.539,7.439,17.2,17.2,0,0,1,2.054,1.109,6.065,6.065,0,0,0,3.929,9.2,6.01,6.01,0,0,1,1.186,8.44c0,.025,0,.05,0,.077a6.06,6.06,0,0,0,4.859,5.939,6.046,6.046,0,0,1-2.735.1,6.063,6.063,0,0,0,5.658,4.208,12.147,12.147,0,0,1-7.522,2.593A12.3,12.3,0,0,1,0,21.278,17.139,17.139,0,0,0,9.284,24" transform="translate(250.24 671)" fill="#fff"/>
      </g>
    </g>
  </g>
</svg>
