<svg xmlns="http://www.w3.org/2000/svg" width="55" height="55" viewBox="0 0 55 55">
  <g id="Group_10270" data-name="Group 10270" transform="translate(-1500.489 -1252.489)">
    <circle id="Ellipse_8" data-name="Ellipse 8" cx="27.5" cy="27.5" r="27.5" transform="translate(1500.489 1252.489)" fill="#476f5b"/>
    <g id="lawyer" transform="translate(1516.11 1268.11)">
      <path id="Path_3261" data-name="Path 3261" d="M240.99,317.566l-.083.335-.643,2.6.726,3.043.726-3.043-.643-2.6Z" transform="translate(-229.186 -302.924)" fill="#fff"/>
      <path id="Path_3262" data-name="Path 3262" d="M282.506,259.693l-1.074-7.627a3.828,3.828,0,0,0-3.088-3.231l-2.733-.512a6.249,6.249,0,0,1-1.639,1.46l-.49,2.057-2.06,8.641h10.4a.692.692,0,0,0,.685-.788Z" transform="translate(-258.905 -236.874)" fill="#fff"/>
      <path id="Path_3263" data-name="Path 3263" d="M8.543,249.783a6.252,6.252,0,0,1-1.639-1.46l-2.733.512a3.828,3.828,0,0,0-3.088,3.231L.007,259.693a.692.692,0,0,0,.685.788h10.4l-2.06-8.641Z" transform="translate(-0.001 -236.873)" fill="#fff"/>
      <path id="Path_3264" data-name="Path 3264" d="M160.342,119.046v-.65h-.692a3.343,3.343,0,0,1-2.8-1.4q-.056-.076-.106-.151a5.743,5.743,0,0,1-4.347,1.528h-1.774v.674a4.873,4.873,0,0,0,2.8,4.4l.633,2.656.562-2.275a4.886,4.886,0,0,0,1.728,0l.562,2.275.633-2.656a4.873,4.873,0,0,0,2.8-4.4Z" transform="translate(-143.68 -111.457)" fill="#fff"/>
      <path id="Path_3265" data-name="Path 3265" d="M152.4,5.532c1.973,0,3.234-.6,3.856-1.832a.692.692,0,0,1,1.292.159,2.723,2.723,0,0,0,.445.9,1.957,1.957,0,0,0,1.658.8h.692v-.7a4.859,4.859,0,1,0-9.717,0v.674H152.4Z" transform="translate(-143.68 0)" fill="#fff"/>
    </g>
  </g>
</svg>
