<svg xmlns="http://www.w3.org/2000/svg" width="44" height="44" viewBox="0 0 44 44">
  <g id="Group_57229" data-name="Group 57229" transform="translate(-998 -809)">
    <circle id="Ellipse_2408" data-name="Ellipse 2408" cx="22" cy="22" r="22" transform="translate(998 809)" fill="#fff"/>
    <g id="money_8_" data-name="money (8)" transform="translate(1010 821)">
      <path id="Path_106749" data-name="Path 106749" d="M100.375,99.2a2.549,2.549,0,0,1-2.344,2.3v.639a.586.586,0,0,1-1.172,0v-.639a2.549,2.549,0,0,1-2.344-2.3.586.586,0,0,1,1.172,0c0,.5.5.932,1.172,1.1V97.978a2.3,2.3,0,1,1,0-4.593v-.633a.586.586,0,0,1,1.172,0v.633a2.549,2.549,0,0,1,2.344,2.3.586.586,0,0,1-1.172,0c0-.5-.5-.932-1.172-1.1V96.9a2.549,2.549,0,0,1,2.344,2.3Z" transform="translate(-87.445 -87.445)" fill="#3c5d4b"/>
      <path id="Path_106751" data-name="Path 106751" d="M10,0A10,10,0,1,0,20,10,10.039,10.039,0,0,0,10,0Zm0,17.617A7.617,7.617,0,1,1,17.617,10,7.626,7.626,0,0,1,10,17.617Z" fill="#3c5d4b"/>
      <path id="Path_106748" data-name="Path 106748" d="M271,274.957c.674-.165,1.172-.6,1.172-1.1s-.5-.932-1.172-1.1Z" transform="translate(-260.414 -262.107)" fill="#f6f8f9"/>
      <path id="Path_106750" data-name="Path 106750" d="M212.172,182.761c-.674.165-1.172.6-1.172,1.1s.5.932,1.172,1.1Z" transform="translate(-202.758 -175.622)" fill="#f6f8f9"/>
    </g>
  </g>
</svg>
